<?xml version="1.0" encoding="utf-8" ?>
<svg baseProfile="tiny" height="135" version="1.2" width="190" xmlns="http://www.w3.org/2000/svg" xmlns:ev="http://www.w3.org/2001/xml-events" xmlns:xlink="http://www.w3.org/1999/xlink"><defs /><path d="M 132,21 132,105 141,105 141,21 Z" fill="#f59e0b" /><path d="M 48,21 48,83 49,84 49,86 50,87 50,89 52,91 52,92 53,93 53,94 60,101 61,101 63,103 65,103 66,104 68,104 69,105 71,105 72,106 89,106 90,105 92,105 93,104 95,104 96,103 97,103 98,102 99,102 101,100 102,100 107,95 107,94 109,92 109,91 110,90 110,88 111,87 111,86 112,85 112,81 113,80 113,21 104,21 104,79 103,80 103,82 102,83 102,85 100,87 100,88 93,95 92,95 91,96 89,96 88,97 87,97 86,98 75,98 74,97 72,97 71,96 70,96 69,95 68,95 65,92 64,92 63,91 63,90 60,87 60,86 59,85 59,84 58,83 58,81 57,80 57,21 Z" fill="#f59e0b" /></svg>